<svg width="106" height="80" viewBox="0 0 106 80" fill="none" xmlns="http://www.w3.org/2000/svg">
<path d="M0 6.58994C0 4.84218 0.694296 3.166 1.93015 1.93015C3.166 0.694296 4.84218 0 6.58994 0H98.849C100.597 0 102.273 0.694296 103.509 1.93015C104.745 3.166 105.439 4.84218 105.439 6.58994C105.439 8.33769 104.745 10.0139 103.509 11.2497C102.273 12.4856 100.597 13.1799 98.849 13.1799H6.58994C4.84218 13.1799 3.166 12.4856 1.93015 11.2497C0.694296 10.0139 0 8.33769 0 6.58994ZM0 39.5396C0 37.7919 0.694296 36.1157 1.93015 34.8798C3.166 33.644 4.84218 32.9497 6.58994 32.9497H98.849C100.597 32.9497 102.273 33.644 103.509 34.8798C104.745 36.1157 105.439 37.7919 105.439 39.5396C105.439 41.2874 104.745 42.9635 103.509 44.1994C102.273 45.4353 100.597 46.1295 98.849 46.1295H6.58994C4.84218 46.1295 3.166 45.4353 1.93015 44.1994C0.694296 42.9635 0 41.2874 0 39.5396ZM0 72.4893C0 70.7415 0.694296 69.0653 1.93015 67.8295C3.166 66.5936 4.84218 65.8994 6.58994 65.8994H98.849C100.597 65.8994 102.273 66.5936 103.509 67.8295C104.745 69.0653 105.439 70.7415 105.439 72.4893C105.439 74.237 104.745 75.9132 103.509 77.1491C102.273 78.3849 100.597 79.0792 98.849 79.0792H6.58994C4.84218 79.0792 3.166 78.3849 1.93015 77.1491C0.694296 75.9132 0 74.237 0 72.4893Z" fill="white"/>
</svg>
