<svg width="50" height="57" viewBox="0 0 50 57" fill="none" xmlns="http://www.w3.org/2000/svg">
<path d="M4.55043 51.0348L0 0H50L45.4435 51.0267L24.9696 56.7031L4.55043 51.0348Z" fill="#E44F26"/>
<path d="M25 52.3653L41.5452 47.7785L45.4374 4.17377H25V52.3653Z" fill="#F1662A"/>
<path d="M25 23.1004H16.7173L16.1462 16.691H25V10.4313H24.9778H9.30542L9.45528 12.1122L10.9923 29.3601H25V23.1004Z" fill="#EBEBEB"/>
<path d="M25 39.356L24.9717 39.3641L18.0012 37.4828L17.5557 32.4909H14.1677H11.2718L12.1487 42.3167L24.9717 45.8769L25 45.8688V39.356Z" fill="#EBEBEB"/>
<path d="M24.9778 23.1004V29.3601H32.6854L31.9604 37.4787L24.9778 39.3621V45.8748L37.8109 42.3167L37.9041 41.2596L39.3743 24.7813L39.5282 23.1004H37.8413H24.9778Z" fill="white"/>
<path d="M24.9778 10.4313V14.3195V16.6768V16.691H40.077H40.0973L40.2228 15.2855L40.5084 12.1122L40.6582 10.4313H24.9778Z" fill="white"/>
</svg>
