<svg width="50" height="50" viewBox="0 0 50 50" fill="none" xmlns="http://www.w3.org/2000/svg">
<path d="M46.3115 0.000189345H3.68852C2.72144 -0.00965279 1.78995 0.364552 1.09844 1.04069C0.40693 1.71683 0.0118899 2.63968 0 3.60675V46.4018C0.0140401 47.3675 0.410025 48.2882 1.1013 48.9626C1.79257 49.637 2.72284 50.01 3.68852 50.0002H46.3115C47.2786 50.0079 48.2095 49.6324 48.9006 48.9558C49.5918 48.2793 49.987 47.3566 50 46.3895V3.59445C49.9828 2.63022 49.5856 1.71177 48.8949 1.03874C48.2042 0.3657 47.2758 -0.00752445 46.3115 0.000189345Z" fill="#0076B2"/>
<path d="M7.40163 18.742H14.8238V42.6231H7.40163V18.742ZM11.1147 6.85675C11.966 6.85675 12.7982 7.10924 13.5059 7.58227C14.2137 8.0553 14.7653 8.72762 15.0908 9.51418C15.4164 10.3007 15.5014 11.1662 15.335 12.0011C15.1687 12.8359 14.7584 13.6027 14.1562 14.2044C13.5539 14.806 12.7868 15.2155 11.9518 15.3811C11.1167 15.5467 10.2514 15.4609 9.46511 15.1346C8.67886 14.8082 8.00706 14.256 7.5347 13.5478C7.06235 12.8396 6.81065 12.0072 6.81146 11.1559C6.81255 10.0153 7.26641 8.92184 8.07331 8.1157C8.88022 7.30957 9.97415 6.85675 11.1147 6.85675Z" fill="white"/>
<path d="M19.4795 18.742H26.5942V22.0207H26.6926C27.6844 20.1436 30.1024 18.1641 33.7131 18.1641C41.2295 18.1477 42.6229 23.0945 42.6229 29.5084V42.6231H35.2008V31.0043C35.2008 28.2379 35.1516 24.6764 31.3442 24.6764C27.5369 24.6764 26.8893 27.6928 26.8893 30.824V42.6231H19.4795V18.742Z" fill="white"/>
</svg>
