<svg width="50" height="50" viewBox="0 0 50 50" fill="none" xmlns="http://www.w3.org/2000/svg">
<path d="M0 0H50V50H0V0Z" fill="#F7DF1E"/>
<path d="M13.1468 41.7836L16.9732 39.468C17.7113 40.7768 18.3828 41.8842 19.9936 41.8842C21.5375 41.8842 22.5109 41.2802 22.5109 38.931V22.9548H27.2097V38.9975C27.2097 43.8641 24.357 46.0793 20.195 46.0793C16.4362 46.0793 14.2543 44.1325 13.1467 41.7832" fill="black"/>
<path d="M29.7619 41.2802L33.5878 39.065C34.5949 40.7098 35.9039 41.9179 38.2196 41.9179C40.1665 41.9179 41.408 40.9445 41.408 39.602C41.408 37.9909 40.1327 37.4203 37.9846 36.4809L36.8102 35.9771C33.4202 34.5341 31.1713 32.7217 31.1713 28.8955C31.1713 25.3713 33.8563 22.6862 38.0519 22.6862C41.039 22.6862 43.1871 23.7267 44.7308 26.4454L41.0724 28.7947C40.2668 27.3516 39.3944 26.7811 38.052 26.7811C36.6759 26.7811 35.8032 27.6537 35.8032 28.7947C35.8032 30.2044 36.6759 30.7751 38.6894 31.6478L39.864 32.1512C43.8581 33.863 46.1069 35.6081 46.1069 39.5348C46.1069 43.764 42.7842 46.0797 38.3204 46.0797C33.9572 46.0797 31.1378 43.9989 29.7619 41.2802Z" fill="black"/>
</svg>
