<svg width="50" height="53" viewBox="0 0 50 53" fill="none" xmlns="http://www.w3.org/2000/svg">
<path d="M8.62219 9.13855C10.2424 10.4547 10.8505 10.3548 13.8954 10.1506L42.5962 8.42835C43.2043 8.42835 42.6983 7.82024 42.4963 7.72034L37.727 4.27363C36.8148 3.56562 35.5964 2.75335 33.2638 2.95533L5.4752 4.98382C4.46312 5.08373 4.25897 5.59194 4.66293 5.9959L8.62219 9.13855ZM10.3445 15.8278V46.025C10.3445 47.6474 11.1545 48.2555 12.9811 48.1534L44.5226 46.3291C46.3491 46.2292 46.5533 45.1128 46.5533 43.7945V13.7993C46.5533 12.4832 46.0473 11.773 44.9288 11.8729L11.9668 13.7993C10.7506 13.9014 10.3445 14.5117 10.3445 15.8278ZM41.4821 17.4458C41.684 18.358 41.4821 19.2702 40.5699 19.3744L39.0496 19.6785V41.9702C37.7291 42.6804 36.5129 43.0865 35.4987 43.0865C33.8741 43.0865 33.468 42.5783 32.2518 41.0602L22.3113 25.4534V40.552L25.4561 41.2643C25.4561 41.2643 25.4561 43.0887 22.9194 43.0887L15.9217 43.4926C15.7197 43.0887 15.9217 42.0744 16.6319 41.8724L18.4563 41.3664V21.4007L15.9261 21.1966C15.7219 20.2844 16.2301 18.9683 17.6483 18.8662L25.1542 18.3602L35.5008 34.1689V20.1823L32.862 19.8804C32.6601 18.7641 33.4702 17.954 34.4844 17.8541L41.4821 17.4458ZM3.14265 2.24731L32.0498 0.118912C35.5986 -0.185145 36.5129 0.0168359 38.7434 1.6392L47.9715 8.1243C49.4918 9.23845 50 9.54251 50 10.7587V46.3291C50 48.5574 49.1899 49.8778 46.3513 50.0776L12.7791 52.1061C10.6507 52.2082 9.63426 51.9042 8.51794 50.4838L1.72227 41.6661C0.506038 40.0438 0 38.8297 0 37.4093V5.79175C0 3.96958 0.812267 2.44712 3.14265 2.24731Z" fill="black"/>
</svg>
