<svg width="50" height="26" viewBox="0 0 50 26" fill="none" xmlns="http://www.w3.org/2000/svg">
<path d="M0.0004032 23.6529H1.65687V17.1113L4.2214 22.8142C4.52383 23.5045 4.93794 23.7485 5.75045 23.7485C6.56296 23.7485 6.96135 23.5045 7.26377 22.8142L9.82831 17.1113V23.6529H11.4848V17.1222C11.4848 16.4851 11.2299 16.1767 10.7041 16.0178C9.44564 15.625 8.60128 15.965 8.21902 16.8146L5.70247 22.4428L3.26575 16.8142C2.89922 15.965 2.03913 15.625 0.780651 16.0174C0.254841 16.1767 0 16.4847 0 17.1218L0.0004032 23.6529ZM12.8626 18.3279H14.5187V21.9319C14.5033 22.1275 14.5816 22.5872 15.4888 22.6017C15.9517 22.609 19.0623 22.6017 19.0913 22.6017V18.3101H20.7514C20.759 18.3101 20.7498 24.1626 20.7498 24.1868C20.7586 25.6304 18.959 25.9437 18.1292 25.9679H12.8985V24.8533C12.9074 24.8533 18.1256 24.8545 18.1385 24.8529C19.205 24.7404 19.0788 24.2106 19.0784 24.0324V23.5977H15.5578C13.9199 23.5828 12.8763 22.8678 12.863 22.0453C12.8622 21.9698 12.8989 18.3642 12.8626 18.3279Z" fill="#00618A"/>
<path d="M22.0284 23.6529H26.7913C27.349 23.6529 27.8909 23.5364 28.3208 23.3348C29.0373 23.0057 29.3877 22.5598 29.3877 21.9751V20.7646C29.3877 20.2868 28.9897 19.8404 28.2091 19.5436C27.795 19.3839 27.2849 19.2997 26.7909 19.2997H24.7836C24.1147 19.2997 23.7961 19.098 23.7167 18.6521C23.701 18.5988 23.701 18.5565 23.701 18.5033V17.7492C23.701 17.7069 23.701 17.6642 23.7167 17.6113C23.7961 17.2714 23.9715 17.1759 24.5611 17.1226L24.7203 17.1121H29.4514V16.0081H24.8002C24.1312 16.0081 23.7808 16.0504 23.4623 16.146C22.4748 16.4541 22.0441 16.9424 22.0441 17.792V18.7581C22.0441 19.5017 22.8889 20.1388 24.3062 20.2876C24.4659 20.2976 24.6248 20.3089 24.784 20.3089H26.5046C26.5683 20.3089 26.632 20.3089 26.68 20.319C27.2058 20.3614 27.4284 20.4573 27.5881 20.6481C27.6837 20.7436 27.7151 20.8396 27.7151 20.9452V21.9118C27.7151 22.0283 27.6357 22.1771 27.4764 22.3045C27.3333 22.4319 27.0941 22.517 26.7756 22.5384L26.6002 22.5489H22.0284V23.6529ZM39.7225 21.7311C39.7225 22.867 40.5668 23.5041 42.2709 23.632C42.4302 23.6424 42.5894 23.6529 42.7487 23.6529H47.0657V22.5489H42.7173C41.7455 22.5489 41.3793 22.3045 41.3793 21.7202V16.0073H39.7229L39.7225 21.7311ZM30.445 21.7884V17.8509C30.445 16.8508 31.1474 16.244 32.5361 16.0525C32.6797 16.0311 32.8398 16.0206 32.9829 16.0206H36.1277C36.2874 16.0206 36.4309 16.0311 36.5902 16.0525C37.9789 16.244 38.6817 16.8504 38.6817 17.8509V21.7884C38.6817 22.6005 38.3834 23.0344 37.6958 23.3174L39.3281 24.7904H37.4043L36.0841 23.5985L34.7551 23.6828H32.9829C32.6797 23.6828 32.3607 23.6404 32.0095 23.5445C30.9559 23.2574 30.445 22.7037 30.445 21.7884ZM32.2329 21.6928C32.2329 21.746 32.2486 21.7997 32.2648 21.8634C32.3603 22.3211 32.7918 22.5763 33.4458 22.5763H34.9507L33.5684 21.3283H35.4922L36.6975 22.417C36.92 22.2981 37.066 22.1174 37.1172 21.8848C37.1329 21.8315 37.1329 21.7783 37.1329 21.7251V17.9476C37.1329 17.9053 37.1329 17.8517 37.1172 17.7984C37.0212 17.3726 36.5902 17.1283 35.9519 17.1283H33.4454C32.7115 17.1283 32.2325 17.4476 32.2325 17.9476L32.2329 21.6928Z" fill="#E48E00"/>
<path d="M48.523 14.1746C47.5048 14.1468 46.727 14.2416 46.0617 14.5218C45.8726 14.6016 45.5713 14.6037 45.5407 14.8404C45.6443 14.9496 45.6605 15.1121 45.7431 15.246C45.902 15.5029 46.1701 15.8472 46.4093 16.0275C46.6701 16.2246 46.9395 16.4359 47.2201 16.6069C47.7181 16.9109 48.2746 17.0843 48.7548 17.3884C49.0375 17.5682 49.3181 17.794 49.5944 17.9968C49.7311 18.0964 49.8222 18.2525 50 18.315V18.2863C49.9069 18.1678 49.8827 18.0049 49.7972 17.8807L49.4206 17.5041C49.0524 17.0154 48.5855 16.5867 48.0883 16.2303C47.6923 15.946 46.806 15.5617 46.6407 15.1008L46.6117 15.0722C46.8923 15.0404 47.2214 14.9387 47.4802 14.8694C47.9157 14.7524 48.3048 14.7827 48.7544 14.6666L49.3625 14.4924V14.377C49.1355 14.144 48.973 13.8351 48.7254 13.6242C48.0774 13.0722 47.3693 12.5206 46.6407 12.0601C46.2367 11.8052 45.7371 11.6395 45.3084 11.4234C45.1649 11.3504 44.9117 11.3129 44.8161 11.1915C44.5907 10.9048 44.4685 10.5415 44.2947 10.2073C43.9318 9.50765 43.5746 8.74313 43.2524 8.00643C43.033 7.50441 42.8895 7.00924 42.6157 6.55883C41.3007 4.39712 39.8854 3.09227 37.6931 1.81001C37.2265 1.53702 36.6648 1.42976 36.0717 1.28903L35.116 1.23097C34.9221 1.14992 34.7196 0.912016 34.537 0.796692C33.8104 0.337817 31.9474 -0.660175 31.4095 0.652335C31.07 1.48057 31.9176 2.28864 32.2204 2.7084C32.4329 3.00276 32.7055 3.3326 32.8575 3.66365C32.9575 3.88139 32.9745 4.09954 33.0604 4.32978C33.2704 4.89672 33.4539 5.51407 33.7261 6.03786C33.8636 6.30319 34.0156 6.58263 34.1894 6.81972C34.2958 6.96489 34.4789 7.0294 34.5075 7.254C34.3289 7.504 34.3184 7.89272 34.218 8.20925C33.7656 9.63628 33.9362 11.4101 34.5946 12.4661C34.7967 12.7907 35.2725 13.4859 35.9265 13.219C36.4987 12.9859 36.3713 12.2637 36.535 11.6262C36.5721 11.4823 36.5491 11.3758 36.6217 11.279V11.3081L37.143 12.3504C37.5289 12.9718 38.2132 13.6206 38.7935 14.0589C39.0943 14.2859 39.3314 14.6791 39.7201 14.8117V14.7823H39.6915C39.6156 14.6649 39.4983 14.6166 39.4015 14.5218C39.1749 14.2996 38.9229 14.0238 38.7358 13.769C38.208 13.0528 37.7418 12.2686 37.3168 11.4524C37.114 11.0629 36.9378 10.6331 36.7668 10.2363C36.7007 10.0835 36.7015 9.85201 36.5644 9.77338C36.3765 10.0637 36.1011 10.2988 35.9559 10.6419C35.7245 11.1903 35.6946 11.8593 35.6088 12.5528L35.5507 12.5815C35.1471 12.4843 35.0055 12.069 34.8555 11.7129C34.4765 10.8125 34.4059 9.36208 34.7398 8.32538C34.8261 8.05683 35.216 7.21207 35.058 6.96408C34.9825 6.7169 34.7338 6.57416 34.595 6.38464C34.4229 6.15117 34.2507 5.84391 34.1317 5.57375C33.8212 4.87172 33.6765 4.08341 33.3503 3.37333C33.1938 3.03381 32.9301 2.69066 32.7132 2.38904C32.4733 2.05436 32.2043 1.80839 32.018 1.40436C31.9519 1.26081 31.862 1.03056 31.9599 0.882982C31.991 0.783384 32.0358 0.741852 32.1341 0.70919C32.3019 0.579754 32.7696 0.752337 32.9446 0.824918C33.4091 1.01806 33.7967 1.20153 34.1902 1.46202C34.3789 1.58742 34.5696 1.82936 34.7983 1.8963H35.0588C35.4664 1.98985 35.9233 1.92493 36.3039 2.04065C36.9773 2.24549 37.5806 2.56364 38.1281 2.90961C39.7971 3.96365 41.1612 5.46366 42.0951 7.25319C42.2451 7.5415 42.3104 7.8161 42.4423 8.12175C42.7092 8.73788 43.0455 9.37216 43.3108 9.97499C43.5758 10.5762 43.8342 11.1831 44.2088 11.6835C44.4056 11.9464 45.1661 12.0875 45.5117 12.2335C45.754 12.3359 46.1508 12.4428 46.3802 12.5807C46.8185 12.8452 47.2435 13.1601 47.6544 13.4496C47.8597 13.5956 48.4915 13.9129 48.523 14.1746ZM35.5797 3.14268C35.3676 3.13865 35.2172 3.16607 35.0584 3.20074V3.22937H35.0874C35.1886 3.43784 35.3672 3.57171 35.4926 3.75075L35.7826 4.35882L35.8112 4.33019C35.9906 4.20398 36.0725 4.00196 36.0717 3.69309C35.9995 3.61728 35.989 3.52252 35.9269 3.4326C35.8447 3.31163 35.6842 3.24389 35.5797 3.14268Z" fill="#00618A"/>
</svg>
