<svg width="50" height="51" viewBox="0 0 50 51" fill="none" xmlns="http://www.w3.org/2000/svg">
<path d="M0 50.2148L3.53306 37.3239C1.36071 33.5521 0.202912 29.2671 0.214848 24.8866C0.214848 11.1602 11.387 0 25.1134 0C31.7737 0 38.0281 2.59011 42.719 7.2929C47.4218 11.9957 50.0119 18.2502 50 24.8985C50 38.6249 38.8278 49.7851 25.1014 49.7851H25.0895C20.9238 49.7851 16.8298 48.7347 13.1893 46.7534L0 50.2148ZM13.81 42.2415L14.5619 42.6951C17.7369 44.581 21.3774 45.5717 25.0895 45.5836H25.1014C36.5003 45.5836 45.7865 36.3094 45.7865 24.8985C45.7865 19.3721 43.6381 14.18 39.735 10.265C35.8319 6.34996 30.6278 4.20148 25.1014 4.20148C13.6906 4.20148 4.40439 13.4758 4.40439 24.8866C4.40439 28.7897 5.49057 32.5972 7.56743 35.8916L8.05681 36.6794L5.96801 44.3065L13.81 42.2415Z" fill="black" fill-opacity="0.24"/>
<path d="M1.12946 48.8842L4.50078 36.5895C2.42612 32.9942 1.32985 28.9038 1.32985 24.7309C1.32985 11.6464 11.9861 1.00198 25.0588 1.00198C31.4124 1.00198 37.3653 3.47743 41.8447 7.95681C46.3241 12.4362 48.7877 18.4008 48.7877 24.7427C48.7877 37.8272 38.1315 48.4716 25.0588 48.4716H25.047C21.0745 48.4716 17.1727 47.4697 13.7071 45.5836L1.12946 48.8842Z" fill="url(#paint0_linear_1_89)"/>
<path d="M0.268951 49.7447L3.75815 37.0138C1.61277 33.2889 0.469345 29.057 0.481133 24.7309C0.481133 11.1749 11.5146 0.153229 25.0706 0.153229C31.6482 0.153229 37.825 2.71119 42.4576 7.3556C47.1021 12 49.66 18.1768 49.6482 24.7427C49.6482 38.2987 38.6148 49.3203 25.0588 49.3203H25.047C20.933 49.3203 16.8898 48.283 13.2945 46.3262L0.268951 49.7447ZM13.9075 41.8704L14.6501 42.3184C17.7857 44.1808 21.381 45.1592 25.047 45.171H25.0588C36.3162 45.171 45.4871 36.0119 45.4871 24.7427C45.4871 19.2849 43.3653 14.1572 39.5107 10.2908C35.6561 6.42436 30.5166 4.30255 25.0588 4.30255C13.7896 4.30255 4.61867 13.4617 4.61867 24.7309C4.61867 28.5855 5.69136 32.3458 7.74244 35.5993L8.22575 36.3773L6.16287 43.9097L13.9075 41.8704Z" fill="white"/>
<path d="M18.9173 14.4401C18.4576 13.4146 17.9743 13.391 17.5382 13.3792C17.1845 13.3674 16.7719 13.3674 16.3594 13.3674C15.9468 13.3674 15.2867 13.5206 14.7209 14.1336C14.155 14.7466 12.5755 16.2318 12.5755 19.2613C12.5755 22.279 14.7798 25.2024 15.0863 25.615C15.3928 26.0275 19.3417 32.4283 25.5775 34.892C30.7641 36.9431 31.825 36.5305 32.9449 36.4244C34.0765 36.3183 36.5755 34.9392 37.0942 33.501C37.6011 32.0629 37.6011 30.837 37.4478 30.5777C37.2946 30.3183 36.882 30.1651 36.269 29.8586C35.6561 29.5521 32.6384 28.0668 32.0726 27.8547C31.5067 27.6425 31.0942 27.5482 30.6934 28.1611C30.2808 28.7741 29.102 30.1533 28.7484 30.5659C28.3948 30.9784 28.0293 31.0256 27.4164 30.7191C26.8034 30.4126 24.823 29.7643 22.4773 27.6661C20.6501 26.0393 19.4124 24.0236 19.0588 23.4106C18.7051 22.7977 19.0234 22.4676 19.3299 22.1611C19.601 21.89 19.9429 21.4421 20.2494 21.0884C20.5558 20.7348 20.6619 20.4755 20.8623 20.0629C21.0627 19.6503 20.9684 19.2967 20.8152 18.9902C20.6619 18.6837 19.4596 15.6542 18.9173 14.4401Z" fill="white"/>
<defs>
<linearGradient id="paint0_linear_1_89" x1="6101.2" y1="12305.9" x2="6101.2" y2="0.313991" gradientUnits="userSpaceOnUse">
<stop stop-color="#20B038"/>
<stop offset="1" stop-color="#60D66A"/>
</linearGradient>
</defs>
</svg>
