<svg width="39" height="30" viewBox="0 0 39 30" fill="none" xmlns="http://www.w3.org/2000/svg">
<path d="M35.3571 0H3.21429C1.43973 0 0 1.43973 0 3.21429V26.7857C0 28.5603 1.43973 30 3.21429 30H35.3571C37.1317 30 38.5714 28.5603 38.5714 26.7857V3.21429C38.5714 1.43973 37.1317 0 35.3571 0ZM35.3571 26.7857H3.21429V3.21429H35.3571V26.7857ZM13.9286 15C16.2924 15 18.2143 13.0781 18.2143 10.7143C18.2143 8.35045 16.2924 6.42857 13.9286 6.42857C11.5647 6.42857 9.64286 8.35045 9.64286 10.7143C9.64286 13.0781 11.5647 15 13.9286 15ZM7.92857 23.5714H19.9286C20.7589 23.5714 21.4286 22.9955 21.4286 22.2857V21C21.4286 18.8705 19.4129 17.1429 16.9286 17.1429C16.2054 17.1429 15.6763 17.6786 13.9286 17.6786C12.1272 17.6786 11.692 17.1429 10.9286 17.1429C8.4442 17.1429 6.42857 18.8705 6.42857 21V22.2857C6.42857 22.9955 7.09821 23.5714 7.92857 23.5714ZM24.1071 19.2857H31.6071C31.9018 19.2857 32.1429 19.0446 32.1429 18.75V17.6786C32.1429 17.3839 31.9018 17.1429 31.6071 17.1429H24.1071C23.8125 17.1429 23.5714 17.3839 23.5714 17.6786V18.75C23.5714 19.0446 23.8125 19.2857 24.1071 19.2857ZM24.1071 15H31.6071C31.9018 15 32.1429 14.7589 32.1429 14.4643V13.3929C32.1429 13.0982 31.9018 12.8571 31.6071 12.8571H24.1071C23.8125 12.8571 23.5714 13.0982 23.5714 13.3929V14.4643C23.5714 14.7589 23.8125 15 24.1071 15ZM24.1071 10.7143H31.6071C31.9018 10.7143 32.1429 10.4732 32.1429 10.1786V9.10714C32.1429 8.8125 31.9018 8.57143 31.6071 8.57143H24.1071C23.8125 8.57143 23.5714 8.8125 23.5714 9.10714V10.1786C23.5714 10.4732 23.8125 10.7143 24.1071 10.7143Z" fill="#9D6C78"/>
</svg>
