<svg width="50" height="50" viewBox="0 0 50 50" fill="none" xmlns="http://www.w3.org/2000/svg">
<path d="M37.4376 49.7504C37.5208 42.9284 43.0948 37.4376 49.9168 37.4376H50V0C49.9584 0 49.9584 0 49.9168 0C22.3794 0 0.0831947 22.2546 0 49.7504H37.4376Z" fill="#F44336"/>
<path d="M37.4376 49.7504C37.5208 42.9284 43.0949 37.4376 49.9168 37.4376H50V6.23959C49.8336 6.23959 49.6672 6.23959 49.5008 6.23959C25.416 6.23959 5.90683 25.7071 5.82364 49.7504H37.4376Z" fill="#FF9800"/>
<path d="M37.4376 49.7504C37.5208 42.9284 43.0948 37.4376 49.9168 37.4376H50V12.4792C49.9584 12.4792 49.9584 12.4792 49.9168 12.4792C29.2845 12.4792 12.5624 29.1597 12.4792 49.7504H37.4376Z" fill="#FFEB3B"/>
<path d="M37.4376 49.7504C37.5208 42.9285 43.0949 37.4376 49.9168 37.4376H50V18.7188C49.9584 18.7188 49.9584 18.7188 49.9168 18.7188C32.7371 18.7188 18.802 32.6123 18.7188 49.7504H37.4376Z" fill="#8BC34A"/>
<path d="M37.4376 49.7504C37.5208 42.9285 43.0948 37.4376 49.9168 37.4376H50V24.9584C49.9584 24.9584 49.9584 24.9584 49.9168 24.9584C36.1897 24.9584 25.0416 36.0233 24.9584 49.7504H37.4376Z" fill="#2196F3"/>
<path d="M37.4376 49.7504C37.5208 42.9284 43.0948 37.4376 49.9168 37.4376H50V31.198C49.9584 31.198 49.9584 31.198 49.9168 31.198C39.6423 31.198 31.2812 39.4759 31.198 49.7504H37.4376Z" fill="#673AB7"/>
<path opacity="0.2" d="M1.66389 49.7504C1.70549 36.9384 6.73877 24.8752 15.807 15.807C24.9168 6.69717 37.0216 1.66389 49.9168 1.66389H50V0C49.9584 0 49.9584 0 49.9168 0C22.3794 0 0.0831947 22.2546 0 49.7504H1.66389Z" fill="#424242"/>
<path opacity="0.2" d="M37.8536 49.7504C37.9368 43.178 43.3028 37.8536 49.8752 37.8536H49.9584V36.1897C49.9168 36.1897 49.9168 36.1897 49.8752 36.1897C42.3461 36.1897 36.2729 42.2213 36.1481 49.7504H37.8536Z" fill="#424242"/>
</svg>
