<svg width="35" height="30" viewBox="0 0 35 30" fill="none" xmlns="http://www.w3.org/2000/svg">
<path d="M32.8846 0H1.73077C1.2719 0.000534407 0.831987 0.183054 0.507521 0.507521C0.183054 0.831987 0.000534407 1.2719 0 1.73077V28.2692C0.000534407 28.7281 0.183054 29.168 0.507521 29.4925C0.831987 29.8169 1.2719 29.9995 1.73077 30H8.07692V25.758C8.07704 25.5009 8.14586 25.2485 8.27624 25.0269C8.40663 24.8053 8.59386 24.6226 8.81856 24.4976L15.4517 20.8108L13.2692 15.3547V10.9615C13.2692 9.89047 13.6947 8.86327 14.4521 8.10592C15.2094 7.34856 16.2366 6.92308 17.3077 6.92308C18.3788 6.92308 19.406 7.34856 20.1633 8.10592C20.9207 8.86327 21.3462 9.89047 21.3462 10.9615V15.3547L19.1637 20.8106L25.7968 24.4976C26.0215 24.6226 26.2087 24.8053 26.3391 25.0269C26.4695 25.2485 26.5383 25.5009 26.5385 25.758V30H32.8846C33.3435 29.9995 33.7834 29.8169 34.1079 29.4925C34.4323 29.168 34.6148 28.7281 34.6154 28.2692V1.73077C34.6148 1.2719 34.4323 0.831987 34.1079 0.507521C33.7834 0.183054 33.3435 0.000534407 32.8846 0ZM32.3077 27.6923H28.8462V25.758C28.8459 25.0894 28.6671 24.4331 28.3281 23.8568C27.9891 23.2805 27.5022 22.8053 26.9179 22.4803L22.0612 19.7812L23.6538 15.7991V10.9615C23.6538 9.27843 22.9852 7.66426 21.7951 6.47413C20.605 5.28399 18.9908 4.61538 17.3077 4.61538C15.6246 4.61538 14.0104 5.28399 12.8203 6.47413C11.6301 7.66426 10.9615 9.27843 10.9615 10.9615V15.7991L12.5542 19.7812L7.69745 22.4807C7.11321 22.8056 6.62641 23.2808 6.2874 23.857C5.9484 24.4332 5.7695 25.0895 5.76923 25.758V27.6923H2.30769V2.30769H32.3077V27.6923Z" fill="#9D6C78"/>
</svg>
