<svg width="50" height="27" viewBox="0 0 50 27" fill="none" xmlns="http://www.w3.org/2000/svg">
<path d="M25 26.3036C38.8071 26.3036 50 20.4153 50 13.1518C50 5.88825 38.8071 0 25 0C11.1929 0 0 5.88825 0 13.1518C0 20.4153 11.1929 26.3036 25 26.3036Z" fill="url(#paint0_radial_1_46)"/>
<path d="M25 25.3268C38.2677 25.3268 49.0232 19.8759 49.0232 13.1518C49.0232 6.42772 38.2677 0.976791 25 0.976791C11.7324 0.976791 0.976807 6.42772 0.976807 13.1518C0.976807 19.8759 11.7324 25.3268 25 25.3268Z" fill="#6280B6"/>
<path d="M29.866 17.0804L31.0571 10.9482C31.2268 10.4234 31.2547 9.86307 31.1381 9.324C31.0214 8.78492 30.7643 8.28626 30.3928 7.87857C29.3559 7.14227 28.0863 6.80899 26.8214 6.94107H24.7625L25.3535 3.90535C25.3643 3.84883 25.3625 3.79063 25.3482 3.73489C25.3339 3.67916 25.3074 3.62727 25.2708 3.58293C25.2341 3.53858 25.1881 3.50288 25.136 3.47836C25.084 3.45384 25.0272 3.4411 24.9696 3.44107H22.1125C22.0218 3.44104 21.9338 3.47256 21.8638 3.53022C21.7938 3.58788 21.7459 3.6681 21.7285 3.75714L20.4625 10.2679C20.365 9.57174 20.0693 8.91836 19.6107 8.38571C19.1 7.8743 18.484 7.48042 17.8055 7.23153C17.127 6.98264 16.4023 6.88474 15.6821 6.94464H10.1785C10.0878 6.94461 9.99991 6.97613 9.92987 7.03379C9.85983 7.09145 9.81202 7.17167 9.79462 7.26071L7.2339 20.4393C7.22313 20.4958 7.22497 20.554 7.23927 20.6097C7.25358 20.6655 7.28001 20.7174 7.31668 20.7617C7.35335 20.8061 7.39936 20.8418 7.45141 20.8663C7.50347 20.8908 7.56029 20.9035 7.61783 20.9036H10.4803C10.5711 20.9036 10.659 20.8721 10.729 20.8144C10.799 20.7568 10.8469 20.6765 10.8643 20.5875L11.4839 17.4H13.6268C14.5729 17.4253 15.5173 17.3048 16.4268 17.0429C17.1936 16.7891 17.8949 16.369 18.4803 15.8125C18.9601 15.3755 19.3697 14.8671 19.6946 14.3054L19.1821 16.9393C19.1713 16.9958 19.1732 17.054 19.1875 17.1097C19.2018 17.1655 19.2282 17.2174 19.2649 17.2617C19.3016 17.3061 19.3476 17.3418 19.3996 17.3663C19.4517 17.3908 19.5085 17.4035 19.566 17.4036H22.4232C22.5139 17.4036 22.6018 17.3721 22.6719 17.3144C22.7419 17.2568 22.7897 17.1765 22.8071 17.0875L24.2125 9.85357H26.166C26.9982 9.85357 27.2375 10.0196 27.3089 10.0911C27.3803 10.1625 27.4875 10.3857 27.3535 11.1071L26.2196 16.9375C26.2088 16.994 26.2107 17.0522 26.225 17.108C26.2393 17.1637 26.2657 17.2156 26.3024 17.2599C26.3391 17.3043 26.3851 17.34 26.4371 17.3645C26.4892 17.389 26.546 17.4017 26.6035 17.4018H29.4964C29.5854 17.3983 29.6706 17.3646 29.7378 17.3061C29.805 17.2477 29.8503 17.168 29.866 17.0804ZM16.6607 12.0196C16.5734 12.7693 16.2175 13.462 15.6589 13.9696C14.9573 14.4061 14.1345 14.6069 13.3107 14.5429H12.0393L12.9589 9.80893H14.6035C15.8125 9.80893 16.2982 10.0679 16.4946 10.2839C16.6445 10.5447 16.7368 10.8345 16.7654 11.1338C16.7941 11.4332 16.7584 11.7352 16.6607 12.0196Z" fill="white"/>
<path d="M42.0464 8.38749C41.5358 7.87608 40.9197 7.4822 40.2412 7.23331C39.5627 6.98443 38.8381 6.88652 38.1179 6.94642H32.5982C32.5075 6.94639 32.4196 6.97791 32.3495 7.03557C32.2795 7.09324 32.2317 7.17345 32.2143 7.26249L29.6536 20.4411C29.6428 20.4976 29.6446 20.5558 29.659 20.6115C29.6733 20.6673 29.6997 20.7192 29.7364 20.7635C29.773 20.8078 29.819 20.8435 29.8711 20.8681C29.9231 20.8926 29.98 20.9053 30.0375 20.9053H32.9089C32.9997 20.9054 33.0876 20.8739 33.1576 20.8162C33.2277 20.7585 33.2755 20.6783 33.2929 20.5893L33.9125 17.4018H36.0554C37.0015 17.427 37.9459 17.3066 38.8554 17.0446C39.6222 16.7909 40.3235 16.3708 40.9089 15.8143C41.9116 14.9107 42.5871 13.7008 42.8304 12.3732C43.0225 11.694 43.0516 10.9791 42.9154 10.2865C42.7792 9.59397 42.4815 8.94332 42.0464 8.38749ZM39.0697 12.0196C38.9823 12.7693 38.6264 13.462 38.0679 13.9696C37.3645 14.4066 36.5397 14.6068 35.7143 14.5411H34.4464L35.3661 9.80714H37.0107C38.2197 9.80714 38.7054 10.0661 38.9018 10.2821C39.0522 10.543 39.145 10.833 39.1739 11.1327C39.2029 11.4324 39.1673 11.7348 39.0697 12.0196Z" fill="white"/>
<path d="M14.6035 9.41607C14.9888 9.36757 15.3799 9.39594 15.7541 9.49954C16.1284 9.60314 16.4784 9.77992 16.7839 10.0196C16.981 10.3231 17.1067 10.6674 17.1516 11.0265C17.1964 11.3856 17.1592 11.7502 17.0428 12.0929C16.9407 12.9366 16.5329 13.7136 15.8964 14.2768C15.1288 14.7712 14.2214 15.0031 13.3107 14.9375H11.5642L12.6357 9.42143L14.6035 9.41607ZM7.60889 20.5161H10.4803L11.1607 17.0125H13.6196C14.5247 17.0372 15.4282 16.9222 16.2982 16.6714C17.0122 16.4357 17.6648 16.0441 18.2089 15.525C19.1506 14.6779 19.7849 13.5425 20.0125 12.2964C20.1927 11.6768 20.2243 11.0234 20.1049 10.3893C19.9854 9.75512 19.7182 9.15804 19.325 8.64643C18.8507 8.17738 18.2799 7.81743 17.6523 7.59167C17.0247 7.36591 16.3554 7.27978 15.691 7.33929H10.1785L7.60889 20.5161Z" fill="#000004"/>
<path d="M22.1196 3.83392H24.9768L24.2857 7.3375H26.8232C27.9887 7.21552 29.1595 7.51172 30.1268 8.17321C30.4469 8.53709 30.6658 8.97876 30.7613 9.4539C30.8569 9.92905 30.8259 10.421 30.6714 10.8804L29.4803 17.0125H26.5893L27.7232 11.1821C27.8022 10.9596 27.8303 10.7222 27.8056 10.4874C27.7809 10.2525 27.7039 10.0262 27.5803 9.825C27.1668 9.52876 26.656 9.40107 26.1518 9.46785H23.875L22.4071 17.0179H19.55L22.1196 3.83392Z" fill="#000004"/>
<path d="M37.0125 9.41607C37.3977 9.36757 37.7888 9.39594 38.1631 9.49954C38.5373 9.60314 38.8873 9.77992 39.1928 10.0196C39.3899 10.3231 39.5157 10.6674 39.5605 11.0265C39.6054 11.3856 39.5682 11.7502 39.4518 12.0929C39.3497 12.9366 38.9418 13.7136 38.3053 14.2768C37.5362 14.7723 36.6268 15.0042 35.7143 14.9375H33.9678L35.0393 9.42143L37.0125 9.41607ZM30.0178 20.5161H32.8893L33.5696 17.0125H36.0285C36.9336 17.0372 37.8371 16.9222 38.7071 16.6714C39.4211 16.4357 40.0738 16.0441 40.6178 15.525C41.5595 14.6779 42.1938 13.5425 42.4214 12.2964C42.6016 11.6768 42.6333 11.0234 42.5138 10.3893C42.3944 9.75512 42.1272 9.15804 41.7339 8.64643C41.2597 8.17738 40.6889 7.81743 40.0612 7.59167C39.4336 7.36591 38.7643 7.27978 38.1 7.33929H32.5785L30.0178 20.5161Z" fill="#000004"/>
<defs>
<radialGradient id="paint0_radial_1_46" cx="0" cy="0" r="1" gradientUnits="userSpaceOnUse" gradientTransform="translate(15.0107 4.625) scale(32.8286 32.8286)">
<stop stop-color="white"/>
<stop offset="0.5" stop-color="#4C6B96"/>
<stop offset="1" stop-color="#231F20"/>
</radialGradient>
</defs>
</svg>
