<svg width="36" height="30" viewBox="0 0 36 30" fill="none" xmlns="http://www.w3.org/2000/svg">
<path d="M9.69444 0.245085C9.61703 0.167401 9.52504 0.105764 9.42375 0.0637065C9.32247 0.0216494 9.21387 0 9.1042 0C8.99453 0 8.88594 0.0216494 8.78465 0.0637065C8.68337 0.105764 8.59138 0.167401 8.51397 0.245085L4.09204 4.64131L2.51576 3.10531C2.43835 3.02762 2.34636 2.96599 2.24507 2.92393C2.14379 2.88187 2.0352 2.86022 1.92553 2.86022C1.81585 2.86022 1.70726 2.88187 1.60598 2.92393C1.50469 2.96599 1.4127 3.02762 1.33529 3.10531L0.245085 4.1969C0.167401 4.27431 0.105764 4.3663 0.0637065 4.46759C0.0216493 4.56887 0 4.67747 0 4.78714C0 4.89681 0.0216493 5.0054 0.0637065 5.10669C0.105764 5.20797 0.167401 5.29996 0.245085 5.37737L3.54972 8.66882C3.71467 8.82561 3.93355 8.91305 4.16114 8.91305C4.38872 8.91305 4.6076 8.82561 4.77255 8.66882L5.85512 7.58417L10.8687 2.57132C11.0249 2.41498 11.1131 2.20336 11.1143 1.98236C11.1155 1.76136 11.0295 1.54882 10.8749 1.39084L9.69444 0.245085ZM9.69444 11.2992C9.61703 11.2215 9.52504 11.1599 9.42375 11.1178C9.32247 11.0758 9.21387 11.0541 9.1042 11.0541C8.99453 11.0541 8.88594 11.0758 8.78465 11.1178C8.68337 11.1599 8.59138 11.2215 8.51397 11.2992L4.09204 15.7239L2.51576 14.1893C2.43835 14.1116 2.34636 14.05 2.24507 14.0079C2.14379 13.9658 2.0352 13.9442 1.92553 13.9442C1.81585 13.9442 1.70726 13.9658 1.60598 14.0079C1.50469 14.05 1.4127 14.1116 1.33529 14.1893L0.245085 15.2788C0.167401 15.3562 0.105764 15.4482 0.0637065 15.5495C0.0216493 15.6508 0 15.7593 0 15.869C0 15.9787 0.0216493 16.0873 0.0637065 16.1886C0.105764 16.2899 0.167401 16.3818 0.245085 16.4593L3.54139 19.7576C3.70622 19.9144 3.92499 20.0018 4.15246 20.0018C4.37992 20.0018 4.59869 19.9144 4.76353 19.7576L5.85373 18.6681L10.8673 13.6532C11.0229 13.498 11.1109 13.2875 11.112 13.0677C11.1132 12.8479 11.0275 12.6366 10.8735 12.4797L9.69444 11.2992ZM4.4441 23.3338C2.60465 23.3338 1.07003 24.8267 1.07003 26.6669C1.07003 28.507 2.60603 30 4.4441 30C5.3281 30 6.17589 29.6488 6.80097 29.0238C7.42604 28.3987 7.77721 27.5509 7.77721 26.6669C7.77721 25.7829 7.42604 24.9351 6.80097 24.31C6.17589 23.685 5.3281 23.3338 4.4441 23.3338ZM34.4421 24.4448H14.4434C14.1488 24.4448 13.8662 24.5619 13.6578 24.7702C13.4494 24.9786 13.3324 25.2612 13.3324 25.5559V27.7779C13.3324 28.0726 13.4494 28.3552 13.6578 28.5636C13.8662 28.7719 14.1488 28.889 14.4434 28.889H34.4421C34.7367 28.889 35.0193 28.7719 35.2277 28.5636C35.436 28.3552 35.5531 28.0726 35.5531 27.7779V25.5559C35.5531 25.2612 35.436 24.9786 35.2277 24.7702C35.0193 24.5619 34.7367 24.4448 34.4421 24.4448ZM34.4421 2.22412H14.4434C14.1488 2.22412 13.8662 2.34117 13.6578 2.54953C13.4494 2.75789 13.3324 3.04049 13.3324 3.33515V5.55722C13.3324 5.85189 13.4494 6.13448 13.6578 6.34284C13.8662 6.5512 14.1488 6.66826 14.4434 6.66826H34.4421C34.7367 6.66826 35.0193 6.5512 35.2277 6.34284C35.436 6.13448 35.5531 5.85189 35.5531 5.55722V3.33515C35.5531 3.04049 35.436 2.75789 35.2277 2.54953C35.0193 2.34117 34.7367 2.22412 34.4421 2.22412ZM34.4421 13.3345H14.4434C14.1488 13.3345 13.8662 13.4515 13.6578 13.6599C13.4494 13.8682 13.3324 14.1508 13.3324 14.4455V16.6676C13.3324 16.9622 13.4494 17.2448 13.6578 17.4532C13.8662 17.6616 14.1488 17.7786 14.4434 17.7786H34.4421C34.7367 17.7786 35.0193 17.6616 35.2277 17.4532C35.436 17.2448 35.5531 16.9622 35.5531 16.6676V14.4455C35.5531 14.1508 35.436 13.8682 35.2277 13.6599C35.0193 13.4515 34.7367 13.3345 34.4421 13.3345Z" fill="#9D6C78"/>
</svg>
