<svg width="50" height="57" viewBox="0 0 50 57" fill="none" xmlns="http://www.w3.org/2000/svg">
<path d="M4.54877 51.039L0 0H50L45.4452 51.0309L24.9696 56.7077L4.54877 51.039Z" fill="#1572B6"/>
<path d="M25 52.3696L41.5465 47.7823L45.4391 4.1741H25V52.3696Z" fill="#33A9DC"/>
<path d="M25 22.6648H33.2834L33.8545 16.2548H25V9.99472H25.0223H40.6959L40.546 11.6737L39.0088 28.925H25V22.6648Z" fill="white"/>
<path d="M25.0384 38.9218L25.0101 38.9299L18.0391 37.0464L17.5935 32.054H14.2052H11.3091L12.186 41.8827L25.008 45.4431L25.0384 45.435V38.9218Z" fill="#EBEBEB"/>
<path d="M32.7507 28.6597L31.9973 37.0423L25.0162 38.9258V45.4391L37.8483 41.8827L37.9435 40.8255L39.0311 28.6597H32.7507Z" fill="white"/>
<path d="M25.0223 9.99472V13.8832V16.2386V16.2548H9.92183H9.90158L9.77601 14.8473L9.49045 11.6737L9.34058 9.99472H25.0223Z" fill="#EBEBEB"/>
<path d="M25 22.6649V26.5534V28.9088V28.925H18.1364H18.1161L17.9905 27.5174L17.707 24.3438L17.5571 22.6649H25Z" fill="#EBEBEB"/>
</svg>
