<svg width="57" height="50" viewBox="0 0 57 50" fill="none" xmlns="http://www.w3.org/2000/svg">
<path d="M46.2058 16.2059C45.6228 16.0053 45.0187 15.8154 44.3967 15.6359C44.499 15.2186 44.5928 14.8068 44.6762 14.402C46.0456 7.7546 45.1503 2.39943 42.0928 0.636284C39.1611 -1.05434 34.3665 0.708407 29.5242 4.92252C29.0586 5.32775 28.5916 5.75678 28.1249 6.20642C27.8139 5.90893 27.5034 5.62144 27.1937 5.34645C22.1188 0.840448 17.032 -1.05844 13.9776 0.709807C11.0486 2.40533 10.1813 7.4397 11.414 13.7395C11.533 14.348 11.6721 14.9693 11.8295 15.6011C11.1096 15.8055 10.4145 16.0234 9.74954 16.2551C3.79978 18.3295 0 21.5805 0 24.9527C0 28.4354 4.07907 31.9287 10.2762 34.0469C10.7653 34.214 11.2727 34.3721 11.7957 34.5221C11.6259 35.2055 11.4783 35.8751 11.3543 36.5282C10.179 42.7186 11.0969 47.634 14.018 49.3189C17.0352 51.0588 22.099 49.2703 27.0298 44.9602C27.4195 44.6195 27.8107 44.2582 28.2025 43.8795C28.7103 44.3685 29.2174 44.8314 29.7218 45.2655C34.4979 49.3755 39.215 51.0351 42.1334 49.3456C45.1477 47.6006 46.1273 42.3203 44.8555 35.8959C44.7583 35.4052 44.6453 34.904 44.5184 34.3938C44.874 34.2887 45.2231 34.1801 45.5635 34.0673C52.006 31.9327 56.1977 28.482 56.1977 24.9527C56.1977 21.5683 52.2754 18.2954 46.2058 16.2059ZM44.8085 31.7885C44.5012 31.8902 44.1859 31.9886 43.8646 32.0839C43.1533 29.8323 42.1935 27.438 41.0188 24.9644C42.1397 22.5496 43.0625 20.186 43.7538 17.949C44.3287 18.1153 44.8867 18.2908 45.4244 18.4759C50.6248 20.2662 53.797 22.9131 53.797 24.9527C53.797 27.1251 50.3711 29.9453 44.8085 31.7885ZM42.5003 36.3621C43.0627 39.2029 43.143 41.7713 42.7705 43.7791C42.4358 45.5833 41.7627 46.7862 40.9305 47.2679C39.1594 48.293 35.372 46.9605 31.2874 43.4456C30.8192 43.0427 30.3476 42.6125 29.8744 42.1571C31.4579 40.4253 33.0405 38.412 34.5851 36.176C37.3018 35.9349 39.8685 35.5408 42.1962 35.0027C42.3108 35.4651 42.4126 35.9187 42.5003 36.3621ZM19.1591 47.0908C17.4287 47.7018 16.0506 47.7194 15.2175 47.239C13.4449 46.2166 12.708 42.27 13.7132 36.9759C13.8283 36.3696 13.9654 35.7468 14.1233 35.1102C16.4254 35.6193 18.9733 35.9856 21.6966 36.2064C23.2515 38.3943 24.8799 40.4055 26.5208 42.1664C26.1623 42.5125 25.8051 42.842 25.45 43.1525C23.2697 45.0584 21.0847 46.4106 19.1591 47.0908ZM11.0526 31.7752C8.31239 30.8386 6.04939 29.6213 4.4982 28.293C3.10437 27.0993 2.40065 25.9143 2.40065 24.9527C2.40065 22.9063 5.4515 20.2962 10.5398 18.5222C11.1572 18.3069 11.8035 18.104 12.4742 17.9135C13.1774 20.201 14.0999 22.5926 15.2131 25.0111C14.0855 27.4654 13.1499 29.8952 12.4398 32.2095C11.9616 32.0721 11.4984 31.9274 11.0526 31.7752ZM13.77 13.2784C12.7139 7.88094 13.4153 3.80927 15.1803 2.78755C17.0604 1.69911 21.2178 3.251 25.5996 7.14171C25.8797 7.39039 26.1609 7.65067 26.4428 7.91995C24.81 9.6732 23.1966 11.6692 21.6554 13.8443C19.0124 14.0893 16.4824 14.4828 14.1563 15.0098C14.0101 14.4215 13.8805 13.8435 13.77 13.2784ZM38.0111 19.2642C37.4551 18.3037 36.8842 17.3659 36.3022 16.4537C38.0953 16.6804 39.8132 16.9813 41.4265 17.3495C40.9422 18.9018 40.3385 20.5248 39.6278 22.1886C39.1181 21.2208 38.5789 20.245 38.0111 19.2642ZM28.1257 9.63569C29.233 10.8354 30.342 12.1748 31.4327 13.628C30.3336 13.5761 29.2208 13.5491 28.0989 13.5491C26.9875 13.5491 25.883 13.5755 24.7906 13.6265C25.8825 12.1868 27.001 10.8492 28.1257 9.63569ZM18.1769 19.2808C17.6214 20.244 17.0922 21.2145 16.5905 22.1868C15.8914 20.5288 15.2933 18.8984 14.8047 17.3241C16.4081 16.9653 18.1179 16.6719 19.8996 16.4495C19.3094 17.3701 18.7338 18.315 18.1769 19.2808ZM19.9509 33.6271C18.1101 33.4217 16.3746 33.1434 14.7716 32.7945C15.268 31.1921 15.8792 29.5269 16.5932 27.8332C17.0962 28.8048 17.6275 29.7757 18.1864 30.741C18.7556 31.7244 19.3455 32.6877 19.9509 33.6271ZM28.1921 40.4389C27.0542 39.2112 25.9193 37.8532 24.8108 36.3924C25.8869 36.4346 26.9839 36.4562 28.0989 36.4562C29.2443 36.4562 30.3767 36.4304 31.4912 36.3808C30.3969 37.8679 29.2919 39.228 28.1921 40.4389ZM39.6508 27.7468C40.4019 29.4589 41.0351 31.1154 41.5378 32.6905C39.9084 33.0622 38.1492 33.3616 36.2956 33.584C36.879 32.6596 37.4549 31.7057 38.0207 30.7245C38.5932 29.7317 39.1368 28.7375 39.6508 27.7468ZM35.9412 29.5251C35.0627 31.0483 34.1608 32.5023 33.2453 33.8748C31.5776 33.9941 29.8548 34.0555 28.0989 34.0555C26.35 34.0555 24.6489 34.0012 23.0108 33.8948C22.0583 32.5043 21.1368 31.046 20.2639 29.5382C19.3933 28.0345 18.5923 26.5181 17.8663 25.0103C18.5921 23.4989 19.3912 21.9808 20.2568 20.4799L20.2566 20.4802C21.1245 18.9752 22.0379 17.5239 22.9816 16.1421C24.6529 16.0158 26.3667 15.9499 28.0988 15.9499C29.8386 15.9499 31.5547 16.0163 33.2256 16.1437C34.1548 17.5154 35.062 18.962 35.9333 20.4672C36.8145 21.9892 37.6239 23.4972 38.356 24.9762C37.6261 26.4805 36.8185 28.0037 35.9412 29.5251ZM40.8936 2.71613C42.7755 3.80137 43.5074 8.17813 42.325 13.9174C42.2496 14.2836 42.1646 14.6567 42.0724 15.0347C39.7409 14.4967 37.2091 14.0964 34.5584 13.8477C33.0142 11.6487 31.414 9.64959 29.8078 7.91885C30.2396 7.50342 30.6709 7.1073 31.1003 6.73348C35.2492 3.12286 39.1269 1.69731 40.8936 2.71613ZM28.0989 19.9344C30.8703 19.9344 33.1171 22.1811 33.1171 24.9527C33.1171 27.7241 30.8703 29.9709 28.0989 29.9709C25.3274 29.9709 23.0806 27.7241 23.0806 24.9527C23.0806 22.1811 25.3274 19.9344 28.0989 19.9344Z" fill="#00D8FF"/>
</svg>
