<svg width="50" height="50" viewBox="0 0 50 50" fill="none" xmlns="http://www.w3.org/2000/svg">
<path fill-rule="evenodd" clip-rule="evenodd" d="M25 45.4545C36.2968 45.4545 45.4545 36.2968 45.4545 25C45.4545 13.7033 36.2968 4.54545 25 4.54545C13.7033 4.54545 4.54545 13.7033 4.54545 25C4.54545 36.2968 13.7033 45.4545 25 45.4545ZM25 50C38.807 50 50 38.807 50 25C50 11.1929 38.807 0 25 0C11.1929 0 0 11.1929 0 25C0 38.807 11.1929 50 25 50Z" fill="black"/>
<path d="M34.0909 25L20.4546 34.8411V15.1588L34.0909 25Z" fill="black"/>
</svg>
