<svg width="38" height="30" viewBox="0 0 38 30" fill="none" xmlns="http://www.w3.org/2000/svg">
<path d="M22.5 18.75H15C13.9646 18.75 13.125 19.5896 13.125 20.625V28.125C13.125 29.1604 13.9646 30 15 30H22.5C23.5354 30 24.375 29.1604 24.375 28.125V20.625C24.375 19.5896 23.5354 18.75 22.5 18.75ZM11.25 1.875C11.25 0.839648 10.4104 0 9.375 0H1.875C0.839648 0 0 0.839648 0 1.875V9.375C0 10.4104 0.839648 11.25 1.875 11.25H7.48359L11.7703 18.7523C12.4207 17.6355 13.6172 16.875 15 16.875H15.0164L11.25 10.2838V7.5H24.375V3.75H11.25V1.875ZM35.625 0H28.125C27.0896 0 26.25 0.839648 26.25 1.875V9.375C26.25 10.4104 27.0896 11.25 28.125 11.25H35.625C36.6604 11.25 37.5 10.4104 37.5 9.375V1.875C37.5 0.839648 36.6604 0 35.625 0Z" fill="#9D6C78"/>
</svg>
