<svg width="50" height="75" viewBox="0 0 50 75" fill="none" xmlns="http://www.w3.org/2000/svg">
<path d="M37.5001 50C44.4036 50 50.0001 44.4036 50.0001 37.5C50.0001 30.5964 44.4036 25 37.5001 25C30.5965 25 25.0001 30.5964 25.0001 37.5C25.0001 44.4036 30.5965 50 37.5001 50Z" fill="#19BCFE"/>
<path fill-rule="evenodd" clip-rule="evenodd" d="M12.5 75C19.4036 75 25 69.4036 25 62.5C25 60.6155 25 56.4488 25 50C19.3845 50 15.2178 50 12.5 50C5.59644 50 0 55.5964 0 62.5C0 69.4036 5.59644 75 12.5 75Z" fill="#09CF83"/>
<path fill-rule="evenodd" clip-rule="evenodd" d="M12.5 50H25V25C18.9679 25 14.8012 25 12.5 25C5.59644 25 0 30.5964 0 37.5C0 44.4036 5.59644 50 12.5 50Z" fill="#A259FF"/>
<path fill-rule="evenodd" clip-rule="evenodd" d="M12.5 25H25V0C18.9679 0 14.8012 0 12.5 0C5.59644 0 0 5.59644 0 12.5C0 19.4036 5.59644 25 12.5 25Z" fill="#F24E1E"/>
<path fill-rule="evenodd" clip-rule="evenodd" d="M37.5001 25H25.0001V0H37.5001C44.4036 0 50.0001 5.59644 50.0001 12.5C50.0001 19.4036 44.4036 25 37.5001 25Z" fill="#FF7262"/>
</svg>
